<svg width="234.375" height="265.74310128341455" viewBox="0 0 234.375 265.74310128341455" class="css-1j8o68f"><defs id="SvgjsDefs4619"></defs><g id="SvgjsG4620" featurekey="rootContainer" transform="matrix(4.725301111045653,0,0,4.725301111045653,0.0000347689931040783,0.019721259814305742)" fill="#005792"><path xmlns="http://www.w3.org/2000/svg" d="M23.11 55.78L1.69 43.41A3.39 3.39 0 0 1 0 40.48V15.75a3.39 3.39 0 0 1 1.69-2.94L23.11.45a3.39 3.39 0 0 1 3.39 0l21.41 12.37a3.39 3.39 0 0 1 1.69 2.94v24.72a3.39 3.39 0 0 1-1.69 2.94L26.5 55.78a3.39 3.39 0 0 1-3.39 0z"></path></g><g id="SvgjsG4621" featurekey="symbolFeature-0" transform="matrix(3.5714285714285716,0,0,3.5714285714285716,59.85714285714286,58)" fill="#d1f4fa"><path xmlns="http://www.w3.org/2000/svg" d="M25,25H7.5C4.4677734,25,2,22.5327148,2,19.5c0-2.5527344,1.7529297-4.7480469,4.2109375-5.3369141  C6.7919922,12.2851562,8.5126953,11,10.5,11c0.6923828,0,1.3671875,0.1577148,1.9804688,0.4604492  C13.5175781,8.8051758,16.1132812,7,19,7c3.859375,0,7,3.1401367,7,7c0,0.3613281-0.03125,0.730957-0.0927734,1.1035156  C28.2431641,15.5351562,30,17.5864258,30,20C30,22.7568359,27.7568359,25,25,25z M10.5,12  c-1.6289062,0-3.0273438,1.1118164-3.3994141,2.703125l-0.0751953,0.3203125L6.7011719,15.081543  C4.5566406,15.4663086,3,17.324707,3,19.5C3,21.9814453,5.0185547,24,7.5,24H25c2.2060547,0,4-1.7944336,4-4  c0-2.0810547-1.6357422-3.824707-3.7246094-3.9697266l-0.5898438-0.0415039l0.1386719-0.5751953  C24.9414062,14.9331055,25,14.4575195,25,14c0-3.3085938-2.6914062-6-6-6c-2.6572266,0-5.0263672,1.7841797-5.7617188,4.3388672  l-0.1914062,0.6665039l-0.5722656-0.3925781C11.890625,12.2119141,11.2080078,12,10.5,12z"></path></g><g id="SvgjsG4622" featurekey="nameFeature-0" transform="matrix(0.540678726043352,0,0,0.540678726043352,40.45533431560889,160.82117432290858)" fill="#d1f4fa"><path d="M20.857 17.714 l-10.571 0 l0 4.8571 l14 0 l4.2857 4.2857 l0 8.8571 l-4.2857 4.2857 l-17.143 0 l-4.2857 -4.2857 l0 -4.2857 l5.4286 0 l2.2857 2.2857 l10.571 0 l0 -4.8571 l-14 0 l-4.2857 -4.2857 l0 -8.8571 l4.2857 -4.2857 l17.143 0 l4.2857 4.2857 l0 4.2857 l-5.4286 0 z M60.85671428571429 11.428999999999998 l0 3.4286 l-6.6857 10.857 l6.6857 10.857 l0 3.4286 l-6.8571 0 l-6.5143 -11.143 l-4.9143 0 l0 11.143 l-7.4286 0 l0 -28.571 l7.4286 0 l0 11.143 l4.9143 0 l6.5143 -11.143 l6.8571 0 z M92.00028571428571 11.428999999999998 l0 3.4286 l-9.7143 15.714 l0 9.4286 l-7.4286 0 l0 -9.4857 l-9.7143 -15.657 l0 -3.4286 l6.5714 0 l6.8571 11.657 l6.8571 -11.657 l6.5714 0 z M113.71471428571428 17.714 l-9.1429 0 l0 16 l9.1429 0 l2.2857 -2.2857 l5.4286 0 l0 4.2857 l-4.2857 4.2857 l-15.714 0 l-4.2857 -4.2857 l0 -20 l4.2857 -4.2857 l15.714 0 l4.2857 4.2857 l0 4.2857 l-5.4286 0 z M148.85685714285714 11.428999999999998 l4.2857 4.2857 l0 20 l-4.2857 4.2857 l-16.571 0 l-4.2857 -4.2857 l0 -20 l4.2857 -4.2857 l16.571 0 z M145.71385714285714 33.7143 l0 -16 l-10.286 0 l0 16 l10.286 0 z M180.57114285714286 11.428999999999998 l4.2857 4.2857 l0 20 l-4.2857 4.2857 l-20.857 0 l0 -28.571 l20.857 0 z M177.42814285714286 33.7143 l0 -16 l-10.286 0 l0 16 l10.286 0 z M215.71442857142858 17.714 l-16.857 0 l0 4.8571 l14.571 0 l0 6.2857 l-14.571 0 l0 4.8571 l16.857 0 l0 6.2857 l-20 0 l-4.2857 -4.2857 l0 -24.286 l24.286 0 l0 6.2857 z M247.99957142857144 15.713999999999999 l0 10 l-4.2857 4.2857 l4.2857 6.5714 l0 3.4286 l-6.8571 0 l-5.9429 -9.7143 l-5.4857 0 l0 9.7143 l-7.4286 0 l0 -28.571 l21.429 0 z M240.57157142857145 24 l0 -6.2857 l-10.857 0 l0 6.2857 l10.857 0 z M272.57128571428575 17.714 l-10.571 0 l0 4.8571 l14 0 l4.2857 4.2857 l0 8.8571 l-4.2857 4.2857 l-17.143 0 l-4.2857 -4.2857 l0 -4.2857 l5.4286 0 l2.2857 2.2857 l10.571 0 l0 -4.8571 l-14 0 l-4.2857 -4.2857 l0 -8.8571 l4.2857 -4.2857 l17.143 0 l4.2857 4.2857 l0 4.2857 l-5.4286 0 z"></path></g></svg>